<svg xmlns="http://www.w3.org/2000/svg" xmlns:xlink="http://www.w3.org/1999/xlink" id="Capa_1" x="0px" y="0px" viewBox="0 0 177.1 61.6" style="enable-background:new 0 0 177.1 61.6;" xml:space="preserve">
<style type="text/css">
	.st0{fill:#FFFFFF;}
	.st1{fill:url(#SVGID_1_);}
	.st2{fill:#646464;}
</style>
<rect x="12.3" y="4.1" class="st0" width="38.9" height="51"></rect>
<g>
	<g>
		<linearGradient id="SVGID_1_" gradientUnits="userSpaceOnUse" x1="30.7887" y1="-0.389" x2="30.7887" y2="64.5288">
			<stop offset="0" style="stop-color:#46E6AA"></stop>
			<stop offset="0.5" style="stop-color:#28D2C8"></stop>
			<stop offset="1" style="stop-color:#46A0D2"></stop>
		</linearGradient>
		<path class="st1" d="M51.9,0H9.7C4.3,0,0,4.3,0,9.7v42.2c0,5.3,4.3,9.7,9.7,9.7h42.2c5.3,0,9.7-4.3,9.7-9.7V9.7    C61.6,4.3,57.2,0,51.9,0z M33.4,46.6l-0.5,0.1v0.5v1.2c0,0.6-0.5,1.1-1.1,1.1h-1.9c-0.6,0-1.1-0.5-1.1-1.1v-1.2v-0.5l-0.5-0.1    c-5.1-1-8.8-4.8-8.8-9.1c0-1.1,0.2-2.1,0.7-3.1c0.1-0.2,0.3-0.4,0.5-0.4l2.2-0.7c0.1,0,0.1,0,0.2,0.1l0.9,1.9    c0.1,0.2,0.1,0.4,0,0.6c-0.2,0.5-0.3,1-0.3,1.6c0,2.9,3.3,5.3,7.3,5.3c4,0,7.3-2.4,7.3-5.3c0-2.9-3.3-5.3-7.3-5.3l-0.3,0    c-5.3-0.1-9.6-4-9.6-8.7c0-3.9,3-7.4,7.3-8.4l0.5-0.1v-0.5v-1.3c0-0.6,0.5-1.1,1.1-1.1h1.9c0.6,0,1.1,0.5,1.1,1.1v1.3v0.5l0.5,0.1    c4.3,1,7.3,4.5,7.3,8.4c0,0.4,0,0.8-0.1,1.3c0,0.3-0.2,0.5-0.5,0.6l-2.2,0.8c-0.1,0-0.1,0-0.2-0.1l-0.8-2.3c0-0.1-0.1-0.2-0.1-0.4    c-0.2-2.4-2.8-4.4-6-4.4c-3.2,0-6,2.1-6,4.7c0,2.5,2.7,4.7,6,4.7c6.2,0,11.3,4.2,11.3,9.4C42.1,41.8,38.4,45.6,33.4,46.6z"></path>
	</g>
	<g>
		<path class="st2" d="M72,30c0-7.6,5.7-13.7,13.8-13.7c4.9,0,9.2,2.5,11.4,6.4l-1.8,1c-1.7-3.3-5.4-5.5-9.6-5.5    c-7,0-11.8,5.2-11.8,11.7s4.8,11.7,11.8,11.7c4.2,0,7.9-2.2,9.7-5.6l1.8,1c-2.2,3.9-6.5,6.5-11.4,6.5C77.7,43.7,72,37.6,72,30z"></path>
		<path class="st2" d="M101.6,34.4V16.8h2v17.7c0,4.3,2.7,7.3,7.7,7.3c5,0,7.7-3,7.7-7.3V16.8h2v17.7c0,5.6-3.9,9.3-9.7,9.3    C105.4,43.7,101.6,40,101.6,34.4z"></path>
		<path class="st2" d="M141.7,41.4v1.9h-9.7c-2.7,0-4.8-2.2-4.8-4.8V16.8h2v21.2c0,1.9,1.5,3.4,3.4,3.4H141.7z"></path>
		<path class="st2" d="M165.7,39.9l3.1,3.1l-1.4,1.3l-3.2-3.1c-2.2,1.6-5,2.6-8.1,2.6c-7.6,0-13.7-6.1-13.7-13.7s6.1-13.7,13.7-13.7    s13.7,6.1,13.7,13.7C169.8,33.9,168.2,37.4,165.7,39.9z M162.8,39.7l-5.9-5.8l1.4-1.2l5.9,5.9c2.2-2.2,3.6-5.2,3.6-8.5    c0-6.5-5.2-11.7-11.7-11.7c-6.5,0-11.7,5.2-11.7,11.7s5.2,11.7,11.7,11.7C158.7,41.8,160.9,41,162.8,39.7z"></path>
		<path class="st2" d="M177.1,16.8v26.5h-2V16.8H177.1z"></path>
	</g>
</g>
</svg>